    <svg width="776" height="499" viewBox="0 0 776 499" fill="none" xmlns="http://www.w3.org/2000/svg">
    <g id="Analitycs" clip-path="url(#clip0)">
    <path id="Vector" d="M39.7612 278.029H34.518V282.391H39.7612V278.029Z" fill="#E6E6E6"/>
    <path id="Vector_2" d="M535.71 282.391H525.378V278.029H535.71V282.391ZM515.046 282.391H504.713V278.029H515.046V282.391ZM494.381 282.391H484.049V278.029H494.381V282.391ZM473.717 282.391H463.384V278.029H473.717V282.391ZM453.052 282.391H442.72V278.029H453.052V282.391ZM432.388 282.391H422.056V278.029H432.388L432.388 282.391ZM411.724 282.391H401.391V278.029H411.724V282.391ZM391.059 282.391H380.727V278.029H391.059V282.391ZM370.394 282.391H360.062V278.029H370.394V282.391ZM349.73 282.391H339.397V278.029H349.73L349.73 282.391ZM329.065 282.391H318.733V278.029H329.065L329.065 282.391ZM308.401 282.391H298.068V278.029H308.401L308.401 282.391ZM287.736 282.391H277.404V278.029H287.736L287.736 282.391ZM267.071 282.391H256.739V278.029H267.071L267.071 282.391ZM246.407 282.391H236.075V278.029H246.407L246.407 282.391ZM225.742 282.391H215.41V278.029H225.742L225.742 282.391ZM205.078 282.391H194.745V278.029H205.078L205.078 282.391ZM184.413 282.391H174.081V278.029H184.413L184.413 282.391ZM163.748 282.391H153.417V278.029H163.749L163.748 282.391ZM143.084 282.391H132.752V278.029H143.084L143.084 282.391ZM122.419 282.391H112.088V278.029H122.42L122.419 282.391ZM101.755 282.391H91.4227V278.029H101.755L101.755 282.391ZM81.0903 282.391H70.7582V278.029H81.0906L81.0903 282.391ZM60.4258 282.391H50.0937V278.029H60.4262L60.4258 282.391Z" fill="#E6E6E6"/>
    <path id="Vector_3" d="M39.7612 167.239H34.518V171.601H39.7612V167.239Z" fill="#E6E6E6"/>
    <path id="Vector_4" d="M535.71 171.601H525.378V167.239H535.71V171.601ZM515.046 171.601H504.713V167.239H515.046V171.601ZM494.381 171.601H484.049V167.239H494.381V171.601ZM473.717 171.601H463.384V167.239H473.717V171.601ZM453.052 171.601H442.72V167.239H453.052V171.601ZM432.388 171.601H422.056V167.239H432.388L432.388 171.601ZM411.724 171.601H401.391V167.239H411.724V171.601ZM391.059 171.601H380.727V167.239H391.059V171.601ZM370.394 171.601H360.062V167.239H370.394V171.601ZM349.73 171.601H339.397V167.239H349.73L349.73 171.601ZM329.065 171.601H318.733V167.239H329.065L329.065 171.601ZM308.401 171.601H298.068V167.239H308.401L308.401 171.601ZM287.736 171.601H277.404V167.239H287.736L287.736 171.601ZM267.071 171.601H256.739V167.239H267.071L267.071 171.601ZM246.407 171.601H236.075V167.239H246.407L246.407 171.601ZM225.742 171.601H215.41V167.239H225.742L225.742 171.601ZM205.078 171.601H194.745V167.239H205.078L205.078 171.601ZM184.413 171.601H174.081V167.239H184.413L184.413 171.601ZM163.748 171.601H153.417V167.239H163.749L163.748 171.601ZM143.084 171.601H132.752V167.239H143.084L143.084 171.601ZM122.419 171.601H112.088V167.239H122.42L122.419 171.601ZM101.755 171.601H91.4227V167.239H101.755L101.755 171.601ZM81.0903 171.601H70.7582V167.239H81.0906L81.0903 171.601ZM60.4258 171.601H50.0937V167.239H60.4262L60.4258 171.601Z" fill="#E6E6E6"/>
    <path id="Vector_5" d="M39.7612 56.4494H34.518V60.8112H39.7612V56.4494Z" fill="#E6E6E6"/>
    <path id="Vector_6" d="M535.71 60.8112H525.378V56.4494H535.71V60.8112ZM515.046 60.8112H504.713V56.4494H515.046V60.8112ZM494.381 60.8112H484.049V56.4494H494.381V60.8112ZM473.717 60.8112H463.384V56.4494H473.717V60.8112ZM453.052 60.8112H442.72V56.4494H453.052V60.8112ZM432.388 60.8112H422.056V56.4494H432.388L432.388 60.8112ZM411.724 60.8112H401.391V56.4494H411.724V60.8112ZM391.059 60.8112H380.727V56.4494H391.059V60.8112ZM370.394 60.8112H360.062V56.4494H370.394V60.8112ZM349.73 60.8112H339.397V56.4494H349.73L349.73 60.8112ZM329.065 60.8112H318.733V56.4494H329.065L329.065 60.8112ZM308.401 60.8112H298.068V56.4494H308.401L308.401 60.8112ZM287.736 60.8112H277.404V56.4494H287.736L287.736 60.8112ZM267.071 60.8112H256.739V56.4494H267.071L267.071 60.8112ZM246.407 60.8112H236.075V56.4494H246.407L246.407 60.8112ZM225.742 60.8112H215.41V56.4494H225.742L225.742 60.8112ZM205.078 60.8112H194.745V56.4494H205.078L205.078 60.8112ZM184.413 60.8112H174.081V56.4494H184.413L184.413 60.8112ZM163.748 60.8112H153.417V56.4494H163.749L163.748 60.8112ZM143.084 60.8112H132.752V56.4494H143.084L143.084 60.8112ZM122.419 60.8112H112.088V56.4494H122.42L122.419 60.8112ZM101.755 60.8112H91.4227V56.4494H101.755L101.755 60.8112ZM81.0903 60.8112H70.7582V56.4494H81.0906L81.0903 60.8112ZM60.4258 60.8112H50.0937V56.4494H60.4262L60.4258 60.8112Z" fill="#E6E6E6"/>
    <g id="Barra3">
    <path id="Vector_7" d="M205.36 279.338H162.541V436.362H205.36V279.338Z" fill="#3F3D56"/>
    <path id="Vector_8" d="M213.225 279.338H170.405V436.362H213.225V279.338Z" fill="#6C63FF"/>
    </g>
    <g id="Barra2">
    <path id="Vector_9" d="M306.73 168.548H263.91V436.362H306.73V168.548Z" fill="#3F3D56"/>
    <path id="Vector_10" d="M314.595 168.548H271.775V436.362H314.595V168.548Z" fill="#6C63FF"/>
    </g>
    <g id="Barra1">
    <path id="Vector_11" d="M408.099 57.758H365.279V436.362H408.099V57.758Z" fill="#3F3D56"/>
    <path id="Vector_12" d="M415.964 57.758H373.144V436.362H415.964V57.758Z" fill="#6C63FF"/>
    </g>
    <path id="Vector_13" d="M34.955 69.0987C40.7465 69.0987 45.4414 64.4118 45.4414 58.6303C45.4414 52.8488 40.7465 48.162 34.955 48.162C29.1634 48.162 24.4685 52.8488 24.4685 58.6303C24.4685 64.4118 29.1634 69.0987 34.955 69.0987Z" fill="#E6E6E6"/>
    <path id="Vector_14" d="M34.955 179.888C40.7465 179.888 45.4414 175.202 45.4414 169.42C45.4414 163.639 40.7465 158.952 34.955 158.952C29.1634 158.952 24.4685 163.639 24.4685 169.42C24.4685 175.202 29.1634 179.888 34.955 179.888Z" fill="#E6E6E6"/>
    <path id="Vector_15" d="M34.955 290.678C40.7465 290.678 45.4414 285.991 45.4414 280.21C45.4414 274.428 40.7465 269.742 34.955 269.742C29.1634 269.742 24.4685 274.428 24.4685 280.21C24.4685 285.991 29.1634 290.678 34.955 290.678Z" fill="#E6E6E6"/>
    <path id="Vector_16" d="M776 435.385H0V437.34H776V435.385Z" fill="#3F3D56"/>
    <path id="Vector_17" d="M660.949 81.8556C677.377 81.8556 690.694 68.5617 690.694 52.1629C690.694 35.764 677.377 22.4702 660.949 22.4702C644.522 22.4702 631.205 35.764 631.205 52.1629C631.205 68.5617 644.522 81.8556 660.949 81.8556Z" fill="#2F2E41"/>
    <path id="Vector_18" d="M589.001 247.573L587.393 257.203C587.393 257.203 578.55 290.106 589.804 288.501C601.059 286.896 597.039 258.808 597.039 258.808L598.647 249.981L589.001 247.573Z" fill="#FFB9B9"/>
    <path id="Vector_19" d="M688.282 202.231H623.166C623.166 202.231 604.677 231.122 611.912 281.679C619.147 332.237 615.931 445.391 615.931 445.391H640.852L657.734 268.037L693.105 445.391L716.418 442.983L703.556 238.344L688.282 202.231Z" fill="#2F2E41"/>
    <path id="Vector_20" d="M622.764 442.582L621.96 472.275C621.96 472.275 611.51 501.967 626.784 498.757C642.058 495.547 643.666 489.127 643.666 486.72C643.666 484.312 639.646 442.582 639.646 442.582H622.764Z" fill="#2F2E41"/>
    <path id="Vector_21" d="M712.333 440.326L716.936 472.08C716.936 472.08 731.105 500.194 715.545 498.961C699.986 497.727 697.568 491.566 697.26 489.178C696.951 486.79 695.59 442.482 695.59 442.482L712.333 440.326Z" fill="#2F2E41"/>
    <path id="Vector_22" d="M661.351 81.4543C673.339 81.4543 683.057 71.7534 683.057 59.7867C683.057 47.82 673.339 38.119 661.351 38.119C649.364 38.119 639.646 47.82 639.646 59.7867C639.646 71.7534 649.364 81.4543 661.351 81.4543Z" fill="#FFB9B9"/>
    <path id="Vector_23" d="M677.832 69.0159L686.674 99.511L668.988 117.166L659.341 100.314L656.126 76.2382L677.832 69.0159Z" fill="#FFB9B9"/>
    <path id="Vector_24" d="M685.468 89.4794C685.468 89.4794 684.285 81.3851 681.661 82.2222C679.037 83.0593 655.724 88.6769 655.724 91.0844V101.517L636.43 176.15L631.607 206.645L682.253 205.843L690.292 99.912L685.468 89.4794Z" fill="#E6E6E6"/>
    <path id="Vector_25" d="M681.047 81.0531L686.674 82.6581L695.919 91.8869C695.919 91.8869 718.428 87.8744 721.644 98.3069C724.859 108.74 703.958 238.745 703.958 238.745C703.958 238.745 668.586 250.783 662.959 220.288C657.332 189.793 657.734 163.711 668.988 144.451C680.243 125.191 681.047 81.0531 681.047 81.0531Z" fill="#2F2E41"/>
    <path id="Vector_26" d="M657.726 88.2144L654.518 89.8806L651.705 102.319C651.705 102.319 628.392 108.74 626.784 117.567C625.176 126.395 627.588 174.545 627.588 174.545C627.588 174.545 605.078 220.288 609.098 239.548C609.098 239.548 618.745 247.573 625.98 237.14C633.215 226.708 650.901 164.112 651.705 160.1C652.508 156.087 661.335 89.3569 657.726 88.2144Z" fill="#2F2E41"/>
    <path id="Vector_27" d="M635.627 114.357L627.018 116.687L621.157 133.617L609.098 176.952L585.785 248.376L601.863 255.598L627.587 203.435L635.627 114.357Z" fill="#2F2E41"/>
    <path id="Vector_28" d="M677.831 56.9779C664.01 52.0014 659.334 48.9443 644.068 56.9779L638.44 34.5078H683.458L677.831 56.9779Z" fill="#2F2E41"/>
    <path id="Vector_29" d="M658.538 37.7178C667.861 37.7178 675.42 30.1726 675.42 20.8652C675.42 11.5577 667.861 4.01254 658.538 4.01254C649.214 4.01254 641.656 11.5577 641.656 20.8652C641.656 30.1726 649.214 37.7178 658.538 37.7178Z" fill="#2F2E41"/>
    <path id="Vector_30" d="M638.44 16.8526C638.442 12.5246 640.114 8.3636 643.107 5.23313C646.101 2.10266 650.187 0.24313 654.518 0.0404753C654.25 0.0278348 653.986 -3.05176e-05 653.714 -3.05176e-05C649.237 -3.05176e-05 644.943 1.77551 641.777 4.93599C638.611 8.09647 636.832 12.383 636.832 16.8526C636.832 21.3222 638.611 25.6087 641.777 28.7692C644.943 31.9297 649.237 33.7052 653.714 33.7052C653.986 33.7052 654.25 33.6773 654.518 33.6647C650.187 33.462 646.101 31.6025 643.107 28.4721C640.114 25.3416 638.442 21.1806 638.44 16.8526Z" fill="#2F2E41"/>
    <path id="Vector_31" d="M688.07 250.461H625.366V277.097H688.07V250.461Z" fill="#6C63FF"/>
    <path id="Vector_32" opacity="0.1" d="M688.07 250.461H625.366V277.097H688.07V250.461Z" fill="black"/>
    <path id="Vector_33" opacity="0.2" d="M656.718 271.104C660.771 271.104 664.056 267.825 664.056 263.779C664.056 259.734 660.771 256.454 656.718 256.454C652.666 256.454 649.381 259.734 649.381 263.779C649.381 267.825 652.666 271.104 656.718 271.104Z" fill="black"/>
    <path id="Vector_34" opacity="0.2" d="M640.042 275.1H628.035V252.458H640.709V253.791H629.368V273.768H640.042V275.1Z" fill="black"/>
    <path id="Vector_35" opacity="0.2" d="M685.402 275.1H673.395V273.768H684.068V253.791H672.728V252.458H685.402V275.1Z" fill="black"/>
    <path id="Vector_36" d="M680.257 252.973L620.403 271.63L628.356 297.056L688.21 278.398L680.257 252.973Z" fill="#6C63FF"/>
    <path id="Vector_37" opacity="0.2" d="M654.307 282.339C658.359 282.339 661.644 279.06 661.644 275.014C661.644 270.969 658.359 267.689 654.307 267.689C650.254 267.689 646.969 270.969 646.969 275.014C646.969 279.06 650.254 282.339 654.307 282.339Z" fill="black"/>
    <path id="Vector_38" opacity="0.2" d="M641.768 290.782L630.307 294.354L623.547 272.743L635.645 268.972L636.042 270.243L625.217 273.618L631.183 292.686L641.37 289.511L641.768 290.782Z" fill="black"/>
    <path id="Vector_39" opacity="0.2" d="M685.066 277.285L673.606 280.858L673.208 279.586L683.396 276.411L677.43 257.342L666.606 260.716L666.208 259.444L678.306 255.673L685.066 277.285Z" fill="black"/>
    <path id="Vector_40" d="M687.997 234.292L684.317 243.337C684.317 243.337 674.598 275.992 665.85 268.743C657.103 261.495 675.256 239.663 675.256 239.663L678.515 231.302L687.997 234.292Z" fill="#FFB9B9"/>
    <path id="Vector_41" d="M710.389 100.714L721.644 98.3069C723.242 103.035 724.538 107.86 725.523 112.752C727.131 120.777 724.649 184.175 723.042 190.595C721.434 197.015 692.282 239.792 692.282 239.792L666.048 234.11L703.958 176.952L710.389 100.714Z" fill="#2F2E41"/>
    <path id="Vector_42" opacity="0.2" d="M704.342 141.505L697.351 179.889L671.135 233.103L694.73 177.271L704.342 141.505Z" fill="black"/>
    </g>
    <defs>
    <clipPath id="clip0">
    <rect width="776" height="499" fill="white"/>
    </clipPath>
    </defs>
    </svg>
