<svg width="341" height="347" viewBox="0 0 341 347" fill="none" xmlns="http://www.w3.org/2000/svg">
<path d="M225.536 39.856C243.776 66.76 248.336 101.188 267.032 129.004C285.728 156.82 318.788 177.796 332.696 206.98C346.604 236.164 341.132 273.1 322.664 301.828C304.424 330.328 273.188 350.392 241.04 346.288C208.892 342.412 176.06 314.368 145.964 309.124C115.868 303.88 88.964 321.664 61.376 323.032C34.016 324.4 5.972 309.352 1.184 285.868C-3.604 262.384 14.636 230.692 23.072 203.788C31.508 176.884 29.912 154.768 38.12 137.44C46.556 120.112 64.796 107.572 83.948 81.124C102.872 54.448 122.936 14.092 148.928 3.60399C175.148 -6.88401 207.068 12.724 225.536 39.856Z" fill="url(#paint0_linear)"/>
<defs>
<linearGradient id="paint0_linear" x1="170.451" y1="0.729889" x2="170.451" y2="346.821" gradientUnits="userSpaceOnUse">
<stop stop-color="#0F62FE"/>
<stop offset="1" stop-color="#4931DC" stop-opacity="0.6"/>
</linearGradient>
</defs>
</svg>
